# Blender v2.78 (sub 0) OBJ File: 'backpack.blend'
# www.blender.org
mtllib backpack.mtl
o Cube_Cube.001
v 2.000000 -3.000000 -1.500000
v 2.000000 3.000000 -1.500000
v 2.000000 -3.000000 1.500000
v 2.000000 3.000000 1.500000
v -2.000000 -3.000000 -1.500000
v -2.000000 3.000000 -1.500000
v -2.000000 -3.000000 1.500000
v -2.000000 3.000000 1.500000
vt 0.5333 0.0000
vt 0.5333 1.0000
vt 0.7333 1.0000
vt 0.7333 0.0000
vt 0.2667 0.0011
vt 0.2667 1.0011
vt -0.0000 0.9968
vt -0.0000 -0.0032
vt 0.7333 0.0000
vt 0.7333 1.0000
vt 0.5333 1.0000
vt 0.5333 0.0000
vt 0.5333 -0.0042
vt 0.5333 0.9958
vt 0.2667 0.9947
vt 0.2667 -0.0053
vt 1.0000 0.5000
vt 0.7333 0.5000
vt 0.7333 0.0000
vt 1.0000 0.0000
vt 0.7333 0.5000
vt 1.0000 0.5000
vt 1.0000 1.0000
vt 0.7333 1.0000
vn 1.0000 0.0000 0.0000
vn 0.0000 0.0000 1.0000
vn -1.0000 0.0000 0.0000
vn 0.0000 0.0000 -1.0000
vn 0.0000 -1.0000 0.0000
vn 0.0000 1.0000 0.0000
usemtl Material
s off
f 1/1/1 2/2/1 4/3/1 3/4/1
f 3/5/2 4/6/2 8/7/2 7/8/2
f 7/9/3 8/10/3 6/11/3 5/12/3
f 5/13/4 6/14/4 2/15/4 1/16/4
f 3/17/5 7/18/5 5/19/5 1/20/5
f 8/21/6 4/22/6 2/23/6 6/24/6
